# xmcd CD database file
#
# Track frame offsets:
#	150
#	17287
#	34154
#	50080
#	68902
#	85664
#	110209
#	136585
#	156794
#	176170
#	188324
#
# Disc length: 2976 seconds
#
# Revision: 2
# Processed by: cddbd v1.5.2PL0 Copyright (c) Steve Scherf et al.
# Submitted via: CDex 1.51
#
DISCID=860b9e0b
DTITLE=Menu B - Beatification
DYEAR=2004
DGENRE=Electronica
TTITLE0=Teppich Land
TTITLE1=San Cisco
TTITLE2=Changezz
TTITLE3=Her Tempo
TTITLE4=Steven Signal
TTITLE5=Mars Terasa
TTITLE6=Minus
TTITLE7=Futurebop Collector
TTITLE8=Midicament
TTITLE9=Decadent 5
TTITLE10=Legal Surveillance
EXTD=YEAR: 2004
EXTT0=
EXTT1=
EXTT2=
EXTT3=
EXTT4=
EXTT5=
EXTT6=
EXTT7=
EXTT8=
EXTT9=
EXTT10=
PLAYORDER=
